<svg width="143" height="192" viewBox="0 0 143 192" fill="none" xmlns="http://www.w3.org/2000/svg">
<path d="M45.7588 181.654C58.2675 188.219 64.5219 191.501 71.25 191.501V120.251L4.54589 85.1433C4.44764 85.3012 4.35124 85.4605 4.25647 85.6215C-4.76837e-07 92.8498 0 101.845 0 119.834V120.667C0 138.657 -4.76837e-07 147.652 4.25647 154.88C8.51288 162.109 16.1782 166.131 31.5088 174.176L45.7588 181.654Z" fill="#00BD6E"/>
<path opacity="0.7" d="M110.989 66.3245L96.739 58.8465C84.2303 52.2822 77.976 49 71.2479 49C64.5197 49 58.2654 52.2822 45.7565 58.8465L31.5065 66.3245C16.5172 74.1905 8.85573 78.2112 4.54361 85.1425L71.2479 120.25L137.952 85.1425C133.639 78.2112 125.978 74.1905 110.989 66.3245Z" fill="#00BD6E"/>
<path opacity="0.5" d="M138.244 85.6215C138.149 85.4605 138.053 85.3012 137.954 85.1433L71.25 120.251V191.501C77.9781 191.501 84.2325 188.219 96.7411 181.654L110.991 174.176C126.322 166.131 133.987 162.109 138.244 154.88C142.5 147.652 142.5 138.657 142.5 120.667V119.834C142.5 101.845 142.5 92.8498 138.244 85.6215Z" fill="#00BD6E"/>
<path d="M30.8038 66.6972C31.0377 66.5743 31.2735 66.4506 31.5111 66.326L42.1525 60.7416L106.995 96.4053L135.664 82.0708C136.645 83.1818 137.498 84.3524 138.246 85.622C139.312 87.4319 140.11 89.3525 140.709 91.4974L112.221 105.742V127.376C112.221 130.328 109.828 132.72 106.877 132.72C103.926 132.72 101.533 130.328 101.533 127.376V111.085L76.5959 123.554V190.817C74.7655 191.273 73.0255 191.501 71.2521 191.501C69.4794 191.501 67.7388 191.273 65.9084 190.817V123.554L1.79514 91.4974C2.39406 89.3525 3.19292 87.4319 4.25867 85.622C5.0063 84.3524 5.85902 83.1818 6.84006 82.0708L71.2521 114.277L95.3788 102.214L30.8038 66.6972Z" fill="#00BD6E"/>
<path d="M10.6 138.92C10.6 136.627 11.2133 134.24 12.44 131.76C13.6667 129.253 15.2267 127 17.12 125C19.0133 123 21.04 121.173 23.2 119.52C25.36 117.867 27.4267 116.587 29.4 115.68C31.4 114.773 33.0267 114.32 34.28 114.32C34.76 114.32 35.28 114.507 35.84 114.88C36.4267 115.253 36.72 115.693 36.72 116.2C36.72 116.68 36.2267 117.6 35.24 118.96C34.2533 120.293 33.0533 121.813 31.64 123.52C30.2533 125.227 28.8533 126.987 27.44 128.8C26.0267 130.613 24.8267 132.4 23.84 134.16C22.8533 135.92 22.36 137.347 22.36 138.44C22.36 138.867 22.5733 139.08 23 139.08C23.8 139.08 25.0267 138.28 26.68 136.68C28.3333 135.053 30.16 133.093 32.16 130.8C34.1867 128.48 36.28 126.173 38.44 123.88C40.6267 121.56 42.8667 119.6 45.16 118C47.48 116.373 49.52 115.56 51.28 115.56C51.7867 115.56 52.32 115.707 52.88 116C53.44 116.267 53.72 116.573 53.72 116.92C53.72 117.24 53.5733 117.493 53.28 117.68C52.9867 117.867 52.48 118.133 51.76 118.48C51.0667 118.827 50.2267 119.28 49.24 119.84C48.2533 120.373 46.96 121.227 45.36 122.4C43.76 123.547 42.0267 124.907 40.16 126.48C35.7067 130.24 30.6267 135.333 24.92 141.76C22.6267 144.32 19.5333 145.6 15.64 145.6H15.6C14.4267 145.6 13.3067 144.867 12.24 143.4C11.2 141.907 10.6533 140.413 10.6 138.92ZM42.0591 134.52C42.0591 135.24 42.4857 135.6 43.3391 135.6C44.1391 135.6 45.0191 135.4 45.9791 135C46.9391 134.6 47.4591 134.4 47.5391 134.4C47.6191 134.4 47.6991 134.467 47.7791 134.6C47.8857 134.733 47.9391 134.867 47.9391 135C47.9391 135.293 47.3124 135.68 46.0591 136.16C44.8324 136.613 43.9391 136.84 43.3791 136.84C42.8191 136.84 42.4191 136.84 42.1791 136.84C41.9657 136.813 41.7924 136.947 41.6591 137.24C39.6857 140.947 37.7257 143.28 35.7791 144.24C34.9257 144.667 34.0191 144.88 33.0591 144.88C32.1257 144.88 31.3524 144.573 30.7391 143.96C30.1524 143.32 29.8591 142.32 29.8591 140.96C29.8591 139.067 30.4724 137.307 31.6991 135.68C32.9524 134.027 34.3657 132.787 35.9391 131.96C37.5124 131.133 38.9391 130.72 40.2191 130.72C42.3791 130.96 43.4591 131.613 43.4591 132.68C43.4591 132.973 43.3791 133.24 43.2191 133.48C43.0857 133.693 42.9657 133.827 42.8591 133.88C42.7791 133.907 42.6724 133.933 42.5391 133.96C42.2191 134.04 42.0591 134.227 42.0591 134.52ZM38.7791 136.36C37.9257 137 37.0857 137.813 36.2591 138.8C35.4591 139.787 35.0591 140.6 35.0591 141.24C35.0591 141.853 35.2324 142.16 35.5791 142.16C36.1124 142.16 37.0857 141.347 38.4991 139.72C39.9391 138.067 40.6591 136.707 40.6591 135.64C40.6591 135.48 40.5524 135.4 40.3391 135.4C40.1524 135.4 39.6324 135.72 38.7791 136.36ZM44.5972 127.88C44.5972 127.453 45.7439 127.067 48.0372 126.72C50.3305 126.373 52.7839 126.133 55.3972 126C57.5839 124.027 59.5572 122.347 61.3172 120.96L62.1972 120.24C62.5972 120.24 62.7972 120.533 62.7972 121.12L62.8772 123.08C62.7972 123.373 62.2372 124.293 61.1972 125.84H63.1572C66.1172 125.84 67.8239 126.133 68.2772 126.72C68.7572 127.28 68.9972 127.733 68.9972 128.08C68.9972 128.533 68.5439 128.773 67.6372 128.8C66.7305 128.827 63.8905 128.84 59.1172 128.84C55.3039 132.76 52.3172 136.24 50.1572 139.28C49.3305 140.4 48.6105 141.4 47.9972 142.28C47.3839 143.16 46.9039 143.773 46.5572 144.12C46.2372 144.493 45.9305 144.68 45.6372 144.68C44.7572 144.68 44.0105 144.387 43.3972 143.8C42.7839 143.213 42.4772 142.493 42.4772 141.64C42.4772 139.293 45.7439 135.04 52.2772 128.88H46.1172C45.1039 128.88 44.5972 128.547 44.5972 127.88ZM60.9022 136.24L62.8622 136.04C63.7689 136.04 64.2222 136.493 64.2222 137.4C64.2222 137.88 63.7822 138.413 62.9022 139C62.0222 139.587 61.1289 140.133 60.2222 140.64C59.3422 141.12 58.9022 141.493 58.9022 141.76C58.9022 141.947 59.1155 142.067 59.5422 142.12C60.4755 142.12 62.2489 141.373 64.8622 139.88C67.4755 138.387 68.8755 137.64 69.0622 137.64C69.4355 137.64 69.6222 137.827 69.6222 138.2C69.5955 138.467 68.7422 139.133 67.0622 140.2C65.4089 141.24 63.4622 142.253 61.2222 143.24C59.0089 144.2 57.3155 144.68 56.1422 144.68C54.3022 144.68 53.3822 143.707 53.3822 141.76C53.3822 141.2 53.7555 140.587 54.5022 139.92C55.2755 139.253 56.0355 138.68 56.7822 138.2C57.5555 137.72 57.9422 137.427 57.9422 137.32C57.9422 137.187 57.7555 137.04 57.3822 136.88C56.2622 136.4 55.7022 135.76 55.7022 134.96C55.7022 133.467 56.9422 132.053 59.4222 130.72C61.9289 129.36 64.2489 128.68 66.3822 128.68C67.5555 128.68 68.5289 128.907 69.3022 129.36C70.0755 129.787 70.4622 130.453 70.4622 131.36C70.4622 132.24 69.8355 133.067 68.5822 133.84C67.3555 134.613 66.4755 135 65.9422 135C65.7289 135 65.5289 134.947 65.3422 134.84C65.1822 134.733 65.1022 134.613 65.1022 134.48C65.1022 134.347 65.4622 134.133 66.1822 133.84C66.9289 133.52 67.3022 133.227 67.3022 132.96C67.3022 132.827 67.1022 132.76 66.7022 132.76C66.3289 132.76 65.0755 133.187 62.9422 134.04C60.8089 134.867 59.7422 135.453 59.7422 135.8C59.7422 136.093 60.1289 136.24 60.9022 136.24Z" fill="white"/>
<path d="M51 0L128 29L97.5 98.5L43 69L51 0Z" fill="#F5F5F5"/>
<path d="M127.5 29H128.5L98 98.5H97L127.5 29Z" fill="#6C6C6C"/>
<path d="M54 0L128.5 28V29L51.5 0H54Z" fill="#D9D9D9"/>
</svg>
